<?xml version="1.0" encoding="utf-8"?>
<!-- Generator: Adobe Illustrator 16.0.0, SVG Export Plug-In . SVG Version: 6.00 Build 0)  -->
<!DOCTYPE svg PUBLIC "-//W3C//DTD SVG 1.1//EN" "http://www.w3.org/Graphics/SVG/1.1/DTD/svg11.dtd">
<svg version="1.1" xmlns="http://www.w3.org/2000/svg" xmlns:xlink="http://www.w3.org/1999/xlink" x="0px" y="0px" width="256px"
	 height="256px" viewBox="-244.5 -426.5 256 256" enable-background="new -244.5 -426.5 256 256" xml:space="preserve">
<g id="Games_1_">
	<g>
		<path fill="white" d="M-50.269-359.868c0,0-35.663-0.632-66.231-0.632c-30.558,0-66.225,0.632-66.225,0.632
			c-34.121,0-61.775,27.616-61.775,61.684c0,34.067,27.654,61.684,61.775,61.684c9.318,0,18.116-2.121,26.036-5.808l0.015,0.057
			c0.16-0.102,0.303-0.184,0.462-0.284c3.541-1.688,6.887-3.69,10.022-5.991c23.104-13.11,29.688-11.517,29.688-11.517
			s6.587-1.593,29.692,11.512c3.131,2.305,6.486,4.308,10.026,5.998c0.157,0.101,0.297,0.181,0.459,0.282l0.013-0.057
			c7.922,3.689,16.726,5.808,26.042,5.808c34.112,0,61.769-27.616,61.769-61.684S-16.156-359.868-50.269-359.868z M-154.5-290.5h-20
			v20h-16v-20h-20v-16h20v-20h16v20h20V-290.5z M-62.503-270.5c-7.728,0-13.997-6.267-13.997-13.999
			c0-7.915,6.269-14.001,13.997-14.001c7.736,0,14.003,6.266,14.003,14.001C-48.5-276.767-54.768-270.5-62.503-270.5z
			 M-32.503-298.5c-7.728,0-13.997-6.267-13.997-13.999c0-7.915,6.269-14.001,13.997-14.001c7.736,0,14.003,6.266,14.003,14.001
			C-18.5-304.767-24.768-298.5-32.503-298.5z"/>
	</g>
</g>
</svg>
